PathFileType   4   (X/Y/Z)																																																																																																																							
DataRate	CameraRate	NumFrames	NumMarkers	Units	OrigDataRate	OrigDataStartFrame	OrigNumFrames																																																																																																																
120	120	5	37	mm	120	1	156																																																																																																																
Frame#	Time	Sternum	R.Acromium	L.Acromium	Top.Head	R.ASIS	L.ASIS	V.Sacral	R.Thigh.Upper	R.Thigh.Front	R.Thigh.Rear	R.Knee.Lat	R.Knee.Med	R.Shank.Upper	R.Shank.Front	R.Shank.Rear	R.Ankle.Lat	R.Ankle.Med	R.Heel	R.Midfoot.Sup	R.Midfoot.Lat	R.Toe.Lat	R.Toe.Med	R.Toe.Tip	L.Thigh.Upper	L.Thigh.Front	L.Thigh.Rear	L.Knee.Lat	L.Knee.Med	L.Shank.Upper	L.Shank.Front	L.Shank.Rear	L.Ankle.Lat	L.Ankle.Med	L.Heel	L.Midfoot.Sup	L.Midfoot.Lat	L.Toe.Lat	L.Toe.Med	L.Toe.Tip																																																																															
 	 	X1	Y1	Z1	X2	Y2	Z2	X3	Y3	Z3	X4	Y4	Z4	X5	Y5	Z5	X6	Y6	Z6	X7	Y7	Z7	X8	Y8	Z8	X9	Y9	Z9	X10	Y10	Z10	X11	Y11	Z11	X12	Y12	Z12	X13	Y13	Z13	X14	Y14	Z14	X15	Y15	Z15	X16	Y16	Z16	X17	Y17	Z17	X18	Y18	Z18	X19	Y19	Z19	X20	Y20	Z20	X21	Y21	Z21	X22	Y22	Z22	X23	Y23	Z23	X24	Y24	Z24	X25	Y25	Z25	X26	Y26	Z26	X27	Y27	Z27	X28	Y28	Z28	X29	Y29	Z29	X30	Y30	Z30	X31	Y31	Z31	X32	Y32	Z32	X33	Y33	Z33	X34	Y34	Z34	X35	Y35	Z35	X36	Y36	Z36	X37	Y37	Z37	X38	Y38	Z38	X39	Y39	Z39	
																																																																																																																							
	1	0.21667	-2115.976163	-0.001002095	1365.192135	-2183.420595	-161.9453511	1439.299541	-2180.732025	165.1979949	1438.72084	-2054.950821	-10.08809499	1650.926615	-2128.437698	-117.7896216	1015.839294	-2122.289397	119.399185	1008.825401	-2304.786219	-5.611229398	1007.250189	-2173.905051	-173.4115572	670.0199698	-2117.414897	-67.95180237	596.0382651	-2199.01468	-162.9734513	538.0800861	-2252.20645	-142.5943975	448.3233004	-2256.000202	-8.355853302	430.1461097	-2311.832685	-154.6508593	444.8707637	-2277.003114	-93.81404015	359.1452836	-2363.480105	-165.0122006	362.9488829	-2578.234891	-136.9768135	127.1696688	-2560.837505	-37.22329306	133.1674608	-2641.643584	-79.10633289	168.7503144	-2540.366582	-41.71858376	54.91443589	-2560.414236	-155.3841374	46.72786032	-2523.417871	-165.0174344	-44.24005273	-2510.886017	-50.15543807	-37.85155849	-2471.530605	-83.79364801	-89.01514787	-2126.328112	178.8034865	699.03049	-2032.868025	95.03600439	669.1602536	-2115.598385	161.7547942	578.6740159	-2118.836251	144.5366564	431.9165514	-2117.642146	15.87918741	432.932833	-2121.541698	162.4477689	406.1440456	-2068.125233	100.5194763	354.2144986	-2137.116395	174.5177999	356.6252407	-2091.686463	136.4325857	8.408479474	-2089.125603	34.31683281	34.70804244	-2174.145282	76.11439987	-12.72704839	-1991.647054	48.15109198	-7.137243612	-2011.119846	152.6198727	-7.439350681	-1943.737905	163.716336	-31.01734318	-1925.687396	55.50675189	-30.75873804	-1873.593225	82.30973808	-29.07129154
	2	0.225	-2109.522624	-0.001002095	1365.579092	-2176.906449	-161.9453511	1439.741611	-2174.218353	165.1979949	1439.160713	-2048.263705	-10.08809499	1651.263586	-2122.265471	-117.7896216	1016.251227	-2116.122006	119.399185	1009.233097	-2298.619871	-5.611229398	1007.783693	-2165.182131	-173.4115572	670.8443738	-2107.912982	-67.95180237	597.464031	-2188.895456	-162.9734513	538.6463989	-2241.135324	-142.5943975	448.3322736	-2244.736691	-8.355853302	430.1159903	-2301.162249	-154.6508593	445.173567	-2266.951331	-93.81404015	359.1993264	-2353.398667	-165.0122006	363.6259911	-2569.846932	-136.9768135	129.400449	-2552.406777	-37.22329306	135.2727175	-2633.728032	-79.10633289	170.2527204	-2531.298107	-41.71858376	57.45312488	-2551.261433	-155.3841374	49.06300839	-2513.341476	-165.0174344	-41.52379584	-2500.875267	-50.15543807	-35.00813329	-2461.001354	-83.79364801	-85.76867306	-2121.897979	178.8034865	698.8898475	-2028.668896	95.03600439	668.3062423	-2112.088354	161.7547942	578.4548893	-2116.447676	144.5366564	431.7264549	-2115.24584	15.87918741	432.7335812	-2119.311284	162.4477689	405.9827641	-2066.264073	100.5194763	353.6760721	-2135.236424	174.5177999	356.5755466	-2092.2747	136.4325857	8.045660062	-2089.527575	34.31683281	34.32641962	-2174.762935	76.11439987	-12.99879651	-1992.260363	48.15109198	-7.552678062	-2011.733387	152.6198727	-7.839453709	-1944.370031	163.716336	-31.47049009	-1926.319324	55.50675189	-31.22609656	-1874.22384	82.30973808	-29.57966539
	3	0.23333	-2103.096499	-0.001002095	1365.96881	-2170.420382	-161.9453511	1440.185747	-2167.732756	165.1979949	1439.602678	-2041.606781	-10.08809499	1651.603717	-2116.116662	-117.7896216	1016.668127	-2109.97784	119.399185	1009.645936	-2292.476624	-5.611229398	1008.317237	-2156.483444	-173.4115572	671.6993181	-2098.4416	-67.95180237	598.928621	-2178.79763	-162.9734513	539.2579972	-2230.079629	-142.5943975	448.3965549	-2233.488181	-8.355853302	430.1432105	-2290.492292	-154.6508593	445.5078296	-2256.867411	-93.81404015	359.3027002	-2343.282611	-165.0122006	364.3177271	-2561.320282	-136.9768135	131.5710198	-2543.840558	-37.22329306	137.3244335	-2625.698343	-79.10633289	171.6402433	-2522.041675	-41.71858376	59.96690898	-2541.912108	-155.3841374	51.35910138	-2503.004333	-165.0174344	-38.80784004	-2490.610083	-50.15543807	-32.15631533	-2450.183757	-83.79364801	-82.47801508	-2117.492969	178.8034865	698.7648838	-2024.50032	95.03600439	667.4697406	-2108.603962	161.7547942	578.2584796	-2114.084415	144.5366564	431.5676422	-2112.874917	15.87918741	432.565555	-2117.102588	162.4477689	405.8543068	-2064.424774	100.5194763	353.1756155	-2133.375013	174.5177999	356.5603782	-2092.866965	136.4325857	7.736798702	-2089.93497	34.31683281	33.99757597	-2175.383793	76.11439987	-13.21862144	-1992.877121	48.15109198	-7.911653753	-2012.350358	152.6198727	-8.1835821	-1945.005039	163.716336	-31.86597283	-1926.954151	55.50675189	-31.63534215	-1874.857427	82.30973808	-30.02863168
	4	0.24167	-2096.72288	-0.001002095	1366.363774	-2163.988034	-161.9453511	1440.633943	-2161.300871	165.1979949	1440.048748	-2035.007237	-10.08809499	1651.949952	-2110.01319	-117.7896216	1017.094438	-2103.87864	119.399185	1010.068515	-2286.378198	-5.611229398	1008.850786	-2147.828503	-173.4115572	672.5872577	-2089.020285	-67.95180237	600.4344782	-2168.740748	-162.9734513	539.9173501	-2219.058932	-142.5943975	448.5186334	-2222.274248	-8.355853302	430.2302611	-2279.83363	-154.6508593	445.8560757	-2246.72891	-93.81404015	359.4498578	-2333.112316	-165.0122006	364.9856104	-2552.548771	-136.9768135	133.5572239	-2535.034688	-37.22329306	139.2051844	-2617.474364	-79.10633289	172.7418367	-2512.444174	-41.71858376	62.35933095	-2532.206604	-155.3841374	53.50637503	-2492.186397	-165.0174344	-36.17235885	-2479.875378	-50.15543807	-29.36802017	-2438.829641	-83.79364801	-79.18577601	-2113.132141	178.8034865	698.6581778	-2020.381299	95.03600439	666.6534879	-2105.164057	161.7547942	578.087379	-2111.765063	144.5366564	431.4426932	-2110.547976	15.87918741	432.4313363	-2114.931153	162.4477689	405.7617072	-2062.620457	100.5194763	352.7184446	-2131.545527	174.5177999	356.5819776	-2093.460998	136.4325857	7.485486378	-2090.346696	34.31683281	33.72526795	-2176.005095	76.11439987	-13.38486364	-1993.494674	48.15109198	-8.208454593	-2012.9681	152.6198727	-8.466452569	-1945.63974	163.716336	-32.19701314	-1927.588691	55.50675189	-31.97929533	-1875.490832	82.30973808	-30.40985299
	5	0.25	-2090.422493	-0.001002095	1366.765441	-2157.630362	-161.9453511	1441.087452	-2154.94365	165.1979949	1440.500185	-2028.486669	-10.08809499	1652.303948	-2103.974119	-117.7896216	1017.533559	-2097.843322	119.399185	1010.50436	-2280.343504	-5.611229398	1009.384114	-2139.234677	-173.4115572	673.509943	-2079.666502	-67.95180237	601.9832859	-2158.742342	-162.9734513	540.6262444	-2208.090876	-142.5943975	448.7003655	-2211.112554	-8.355853302	430.3790042	-2269.19675	-154.6508593	446.201966	-2236.515762	-93.81404015	359.6345934	-2322.871009	-165.0122006	365.5935025	-2543.43868	-136.9768135	135.2429904	-2525.897137	-37.22329306	140.8050754	-2608.980356	-79.10633289	173.4019362	-2502.375259	-41.71858376	64.53967602	-2522.008469	-155.3841374	55.40372833	-2480.704075	-165.0174344	-33.69082433	-2468.492077	-50.15543807	-26.71032879	-2426.734898	-83.79364801	-75.93328418	-2108.831809	178.8034865	698.5717498	-2016.328036	95.03600439	665.8598138	-2101.78455	161.7547942	577.9436269	-2109.505036	144.5366564	431.3536162	-2108.280437	15.87918741	432.3329377	-2112.809886	162.4477689	405.7072383	-2060.861919	100.5194763	352.3086868	-2129.759056	174.5177999	356.6418854	-2094.054661	136.4325857	7.293938902	-2090.761596	34.31683281	33.51188568	-2176.624325	76.11439987	-13.49681224	-1994.110571	48.15109198	-8.439245824	-2013.584161	152.6198727	-8.684563638	-1946.271267	163.716336	-32.45895999	-1928.220081	55.50675189	-32.25299615	-1876.12121	82.30973808	-30.71747763
